<svg viewBox="-32 0 496 496.009" xmlns="http://www.w3.org/2000/svg"><path d="M137.973 98.68c-15.13 5.715-25.97 20.226-25.97 37.328 0 6.586 1.755 12.715 4.587 18.203-12 4.613-20.586 16.184-20.586 29.797 0 13.617 8.586 25.183 20.586 29.8-2.832 5.489-4.586 11.618-4.586 18.2 0 17.105 10.84 31.617 25.969 37.328-1.2 3.351-1.97 6.914-1.97 10.672 0 17.648 14.352 32 32 32 3.985 0 7.763-.824 11.282-2.153 5.184 10.7 16.055 18.153 28.719 18.153 17.648 0 32-14.352 32-32v-224c0-17.645-14.352-32-32-32-12.664 0-23.535 7.457-28.719 18.152-3.52-1.328-7.297-2.152-11.281-2.152-17.649 0-32 14.355-32 32 0 3.762.77 7.32 1.969 10.672zm30.03-26.672c8.825 0 16 7.176 16 16h16c0-7.688-2.839-14.664-7.374-20.184 1.855-6.781 8.008-11.816 15.375-11.816 8.824 0 16 7.176 16 16v224c0 8.824-7.176 16-16 16-7.367 0-13.52-5.031-15.375-11.817 4.535-5.52 7.375-12.492 7.375-20.183h-16c0 8.824-7.176 16-16 16s-16-7.176-16-16 7.176-16 16-16v-16c-7.793 0-14.848 2.914-20.399 7.555-11.136-2.075-19.601-11.825-19.601-23.555 0-13.23 10.77-24 24-24 13.234 0 24 10.77 24 24h16c0-22.055-17.941-40-40-40-9.04 0-17.297 3.129-24 8.21v-.21c-8.824 0-16-7.176-16-16s7.176-16 16-16v-.207c6.703 5.082 14.96 8.207 24 8.207 22.059 0 40-17.942 40-40h-16c0 13.234-10.766 24-24 24-13.23 0-24-10.766-24-24 0-11.727 8.465-21.477 19.601-23.551 5.551 4.64 12.606 7.55 20.399 7.55v-16c-8.824 0-16-7.175-16-16 0-8.823 7.176-16 16-16zm0 0M328.004 56.008c-3.984 0-7.758.824-11.277 2.152-5.188-10.695-16.059-18.152-28.723-18.152-17.649 0-32 14.355-32 32v224c0 17.648 14.351 32 32 32 12.664 0 23.535-7.453 28.723-18.153 3.52 1.329 7.293 2.153 11.277 2.153 17.648 0 32-14.352 32-32 0-3.758-.766-7.32-1.969-10.672 15.13-5.711 25.969-20.223 25.969-37.328 0-6.582-1.75-12.711-4.582-18.2 12-4.617 20.582-16.183 20.582-29.8 0-13.613-8.582-25.184-20.582-29.797 2.832-5.488 4.582-11.617 4.582-18.203 0-17.102-10.84-31.613-25.969-37.328 1.203-3.352 1.969-6.91 1.969-10.672 0-17.645-14.352-32-32-32zm40 80c0 13.234-10.766 24-24 24-13.23 0-24-10.766-24-24h-16c0 22.058 17.945 40 40 40 9.039 0 17.297-3.125 24-8.207v.207c8.824 0 16 7.176 16 16s-7.176 16-16 16v.21c-6.703-5.081-14.961-8.21-24-8.21-22.055 0-40 17.945-40 40h16c0-13.23 10.77-24 24-24 13.234 0 24 10.77 24 24 0 11.73-8.465 21.48-19.598 23.554-5.554-4.64-12.61-7.554-20.402-7.554v16c8.824 0 16 7.176 16 16s-7.176 16-16 16-16-7.176-16-16h-16c0 7.691 2.84 14.664 7.375 20.183-1.856 6.786-8.008 11.817-15.375 11.817-8.824 0-16-7.176-16-16v-224c0-8.824 7.176-16 16-16 7.367 0 13.52 5.035 15.375 11.816-4.535 5.52-7.375 12.496-7.375 20.184h16c0-8.824 7.176-16 16-16s16 7.176 16 16-7.176 16-16 16v16c7.793 0 14.848-2.91 20.402-7.551 11.133 2.074 19.598 11.824 19.598 23.55zm0 0"/><path d="M373.98 49.898C336.598 14.762 287.637-2.855 236.254.378l.992 15.966c46.95-2.918 91.637 13.136 125.781 45.21 34.16 32.102 52.977 75.598 52.977 122.454 0 56.465-28.145 108.824-75.29 140.066-16.26 10.781-28.566 26.16-36.148 43.934H191.11c-7.687-17.903-20.039-33.39-36.328-44.27-48.586-32.472-76.504-86.703-74.687-145.09l-15.992-.496c-1.993 63.938 28.59 123.336 81.793 158.883 11.75 7.856 21.132 18.55 27.671 30.973h-21.562v16h27.945c1.551 5.183 2.793 10.496 3.422 16h-15.367v16h16v24c0 4.426 3.586 8 8 8h8c0 26.472 21.527 48 48 48s48-21.528 48-48h8c4.418 0 8-3.574 8-8v-24h16v-16h-15.438c.567-5.496 1.696-10.824 3.215-16h28.223v-16h-21.91c6.445-12.285 15.773-22.848 27.465-30.59 51.62-34.234 82.445-91.578 82.445-153.41 0-50.574-21.152-99.461-58.024-134.11zm-125.976 430.11c-17.649 0-32-14.352-32-32h64c0 17.648-14.352 32-32 32zm48-48h-96v-16h96zm.57-32h-97.21c-.536-5.445-1.4-10.797-2.712-16h102.41c-1.273 5.195-2.011 10.57-2.488 16zm0 0M56.004 56.008c17.648 0 32 14.355 32 32 0 4.426 3.586 8 8 8 4.418 0 8-3.574 8-8 0-17.645 14.351-32 32-32 4.418 0 8-3.574 8-8 0-4.422-3.582-8-8-8-17.649 0-32-14.352-32-32a8 8 0 0 0-16 0c0 17.648-14.352 32-32 32a8 8 0 0 0-8 8c0 4.426 3.586 8 8 8zm40-21.496A48.416 48.416 0 0 0 109.5 48.008a48.468 48.468 0 0 0-13.496 13.496 48.416 48.416 0 0 0-13.496-13.496 48.365 48.365 0 0 0 13.496-13.496zm0 0M88.004 136.008c4.418 0 8-3.574 8-8 0-4.422-3.582-8-8-8-17.649 0-32-14.352-32-32a8 8 0 0 0-16 0c0 17.648-14.352 32-32 32a8 8 0 0 0-8 8c0 4.426 3.586 8 8 8 17.648 0 32 14.355 32 32 0 4.426 3.586 8 8 8 4.418 0 8-3.574 8-8 0-17.645 14.351-32 32-32zm-40 5.496a48.416 48.416 0 0 0-13.496-13.496 48.468 48.468 0 0 0 13.496-13.496A48.52 48.52 0 0 0 61.5 128.008a48.468 48.468 0 0 0-13.496 13.496zm0 0"/></svg>