<?xml version="1.0" encoding="utf-8"?>
<svg id="master-artboard" viewBox="0 0 354.0677795410156 384.794189453125" version="1.1" xmlns="http://www.w3.org/2000/svg" x="0px" y="0px" style="enable-background:new 0 0 1400 980;" width="354.0677795410156px" height="384.794189453125px"><rect id="ee-background" x="0" y="0" width="354.0677795410156" height="384.794189453125" style="fill: white; fill-opacity: 0; pointer-events: none;"/>

<path d="M 0 0 H 1400 V 980 H 0 V 0 Z" class="st0" style="fill: rgb(155, 133, 121); fill-opacity: 0;" transform="matrix(1, 0, 0, 1, -952.0823364257812, -46.92494010925293)"/><path class="st1" d="M980.2,256.9c-0.1,0.1-0.2,0.2-0.3,0.3c-0.8,0.8-1,2-0.5,3c0.7,1.3,12.2,22.7,33.2,36&#10;&#9;&#9;&#9;c-19.4,23.8-29,56.3-28.5,96.8c0,1.1,0.8,2.1,1.8,2.4c0.6,0.2,14.8,3.8,34.1,3.8c0,0,0,0,0,0c17,0,39.1-3,58.4-15.2&#10;&#9;&#9;&#9;c0.9,1.8,1.9,3.6,2.9,5.4c0.4,0.8,1.3,1.3,2.2,1.3c0.2,0,0.4,0,0.6-0.1c0.5-0.1,3.8-1,8.6-2.8c10.4,20.9,27.7,40.3,51.9,57.9&#10;&#9;&#9;&#9;c0.4,0.3,1,0.5,1.5,0.5c0.5,0,1.1-0.2,1.5-0.5c1.9-1.5,42.3-34,46.4-79.8c2.8,0.5,5.6,1,8.5,1.3c0.1,0,0.2,0,0.3,0&#10;&#9;&#9;&#9;c1,0,1.9-0.6,2.3-1.5c0.4-0.9,5.3-12.8,6.9-28.7c7.4,1.4,15.3,2.2,23.8,2.2c0,0,0,0,0,0c18.1,0,37.8-3.6,58.5-10.7&#10;&#9;&#9;&#9;c1.1-0.4,1.7-1.4,1.7-2.5c0-0.8-3.9-54.7-40-84.4c0.5-0.5,1-1,1.5-1.6c0.8-0.8,0.9-2,0.3-3c-0.8-1.2-14.1-22-36.3-33.5&#10;&#9;&#9;&#9;c16.9-25,23.7-57.7,20.2-97.5c-0.1-1.1-0.9-2-2-2.2c-0.4-0.1-9.3-1.7-22.4-1.7c-20.1,0-46.2,3.7-67.6,19c-1.1-1.7-2.2-3.4-3.3-5.2&#10;&#9;&#9;&#9;c-0.6-0.9-1.8-1.3-2.8-1c-0.5,0.2-4.4,1.5-9.9,4.2c-12-19.9-30.7-37.8-55.9-53.5c-1-0.6-2.2-0.5-3,0.3&#10;&#9;&#9;&#9;c-1.7,1.6-38.9,36.6-40.1,81.9c-2.4-0.2-4.8-0.4-7.3-0.6c-1.2-0.2-2.1,0.6-2.5,1.7c-0.2,0.6-1.9,5.8-3.2,13.6&#10;&#9;&#9;&#9;c-7.7-1.4-15.9-2.2-24.8-2.2c-14.9,0-31.1,2.2-48.1,6.6c-1.1,0.3-1.8,1.2-1.9,2.4c0,2.1-0.5,53,31.4,85.4&#10;&#9;&#9;&#9;C978.7,255.5,979.5,256.2,980.2,256.9z" style="fill: rgb(132, 113, 103); fill-opacity: 0;" transform="matrix(1, 0, 0, 1, -952.0823364257812, -46.92494010925293)"/><path class="st4" d="M1095.9,149.8c7.1-23.2,26.8-37.4,40.6-44.8c-11.3-18.7-28.9-35.6-52.5-50.5c-6.7,6.8-36.2,38.7-37.2,77.5&#10;&#9;&#9;&#9;C1066.5,134.5,1082.9,140.5,1095.9,149.8z" style="fill: rgb(88, 170, 51);" transform="matrix(1, 0, 0, 1, -952.0823364257812, -46.92494010925293)"/><path class="st4" d="M1175.4,162.4c5.2,0.5,8.6,1.3,8.8,1.4c1.1,0.3,1.9,1.2,1.9,2.3c0.1,5.2-0.1,10.1-0.7,14.8&#10;&#9;&#9;&#9;c4.5-1,9-1.6,13.6-1.6c9.3,0,17.8,2.2,25.4,5.5c16.2-23.8,22.9-54.9,19.9-92.9c-3.2-0.5-10.4-1.3-19.7-1.3&#10;&#9;&#9;&#9;c-19.4,0-44.7,3.5-65,18.3C1170.3,127.4,1175.5,145.3,1175.4,162.4z" style="fill: rgb(88, 170, 51);" transform="matrix(1, 0, 0, 1, -952.0823364257812, -46.92494010925293)"/><path class="st4" d="M1260.3,228.6c-16.1,16.3-33,26.6-50.5,31c-2.6,1.5-5.1,2.9-7.7,4.1c2.9,3,5.5,6.2,7.7,9.6&#10;&#9;&#9;&#9;c8.7,13.7,10.7,29,10.1,42.2c7.2,1.5,15,2.3,23.4,2.3c0,0,0,0,0,0c17,0,35.5-3.3,55.1-9.8C1297.5,298,1291.6,253.7,1260.3,228.6z" style="fill: rgb(88, 170, 51);" transform="matrix(1, 0, 0, 1, -952.0823364257812, -46.92494010925293)"/><path class="st4" d="M991.4,237c16.6-14.7,33.5-23.8,50.7-27.4c-0.7-0.9-1.4-1.7-2-2.6c-13.2-18.3-13.7-40.6-11.8-56&#10;&#9;&#9;&#9;c-7.4-1.4-15.4-2.1-24.1-2.1c-14,0-29.1,2-45,6c0.2,9.5,2.9,52.5,29.9,80C989.8,235.6,990.6,236.3,991.4,237z" style="fill: rgb(88, 170, 51);" transform="matrix(1, 0, 0, 1, -952.0823364257812, -46.92494010925293)"/><path class="st5" d="M987.7,240.4c-0.1,0.1-0.2,0.2-0.3,0.3c-0.8,0.8-1,2-0.5,3c0.7,1.3,12.2,22.7,33.2,36&#10;&#9;&#9;&#9;c-19.4,23.8-29,56.3-28.5,96.8c0,1.1,0.8,2.1,1.8,2.4c0.6,0.2,14.8,3.8,34.1,3.8c0,0,0,0,0,0c17,0,39.1-3,58.4-15.2&#10;&#9;&#9;&#9;c0.9,1.8,1.9,3.6,2.9,5.4c0.4,0.8,1.3,1.3,2.2,1.3c0.2,0,0.4,0,0.6-0.1c0.5-0.1,3.8-1,8.6-2.8c10.4,20.9,27.7,40.3,51.9,57.9&#10;&#9;&#9;&#9;c0.4,0.3,1,0.5,1.5,0.5c0.5,0,1.1-0.2,1.5-0.5c1.9-1.5,42.3-34,46.4-79.8c2.8,0.5,5.6,1,8.5,1.3c0.1,0,0.2,0,0.3,0&#10;&#9;&#9;&#9;c1,0,1.9-0.6,2.3-1.5c0.4-0.9,5.3-12.8,6.9-28.7c7.4,1.4,15.3,2.2,23.8,2.2c0,0,0,0,0,0c18.1,0,37.8-3.6,58.5-10.7&#10;&#9;&#9;&#9;c1.1-0.4,1.7-1.4,1.7-2.5c0-0.8-3.9-54.7-40-84.4c0.5-0.5,1-1,1.5-1.6c0.8-0.8,0.9-2,0.3-3c-0.8-1.2-14.1-22-36.3-33.5&#10;&#9;&#9;&#9;c16.9-25,23.7-57.7,20.2-97.5c-0.1-1.1-0.9-2-2-2.2c-0.4-0.1-9.3-1.7-22.4-1.7c-20.1,0-46.2,3.7-67.6,19c-1.1-1.7-2.2-3.4-3.3-5.2&#10;&#9;&#9;&#9;c-0.6-0.9-1.8-1.3-2.8-1c-0.5,0.2-4.4,1.5-9.9,4.2c-12-19.9-30.7-37.8-55.9-53.5c-1-0.6-2.2-0.5-3,0.3&#10;&#9;&#9;&#9;c-1.7,1.6-38.9,36.6-40.1,81.9c-2.4-0.2-4.8-0.4-7.3-0.6c-1.2-0.2-2.1,0.6-2.5,1.7c-0.2,0.6-1.9,5.8-3.2,13.6&#10;&#9;&#9;&#9;c-7.7-1.4-15.9-2.2-24.8-2.2c-14.9,0-31.1,2.2-48.1,6.6c-1.1,0.3-1.8,1.2-1.9,2.4c0,2.1-0.5,53,31.4,85.4&#10;&#9;&#9;&#9;C986.2,239,987,239.7,987.7,240.4z M1004.1,148.9c8.7,0,16.7,0.8,24.1,2.1c-1.9,15.4-1.4,37.7,11.8,56c0.6,0.9,1.3,1.8,2,2.6&#10;&#9;&#9;&#9;c-17.1,3.6-34.1,12.7-50.7,27.4c-0.8-0.7-1.5-1.4-2.3-2.2c-27-27.5-29.7-70.5-29.9-80C975.1,150.9,990.2,148.9,1004.1,148.9z&#10;&#9;&#9;&#9; M1136.5,105c-13.8,7.4-33.5,21.7-40.6,44.8c-13.1-9.3-29.5-15.3-49.1-17.8c1-38.8,30.5-70.7,37.2-77.5&#10;&#9;&#9;&#9;C1107.6,69.4,1125.2,86.3,1136.5,105z M1244.3,92c3,38-3.7,69.2-19.9,92.9c-7.6-3.3-16.1-5.5-25.4-5.5c-4.5,0-9.1,0.5-13.6,1.6&#10;&#9;&#9;&#9;c0.6-4.7,0.8-9.6,0.7-14.8c0-1.1-0.8-2.1-1.9-2.3c-0.2,0-3.6-0.9-8.8-1.4c0.1-17.1-5.1-35-15.8-53.5c20.4-14.8,45.6-18.3,65-18.3&#10;&#9;&#9;&#9;C1233.9,90.7,1241.1,91.5,1244.3,92z M1219,251.3c0-0.1,0-0.2-0.1-0.2c-0.6-1.5-14.3-36.5-46.1-37.1c5.9-7.6,9.9-16.8,11.8-27.7&#10;&#9;&#9;&#9;c4.8-1.3,9.6-1.9,14.3-1.9c32.7,0,55.9,30,61,37.3C1246.8,235.8,1233.1,245.7,1219,251.3z M1243.3,317.8&#10;&#9;&#9;&#9;C1243.3,317.8,1243.3,317.8,1243.3,317.8c-8.4,0-16.2-0.8-23.4-2.3c0.7-13.3-1.3-28.6-10.1-42.2c-2.2-3.5-4.8-6.7-7.7-9.6&#10;&#9;&#9;&#9;c2.6-1.2,5.1-2.6,7.7-4.1c17.5-4.3,34.4-14.7,50.5-31c31.4,25.1,37.2,69.5,38.1,79.4C1278.8,314.5,1260.3,317.8,1243.3,317.8z&#10;&#9;&#9;&#9; M1104.9,369.4c14.3-6.1,36.2-18.9,45.4-42.3c12,10.1,27.5,17.2,46.3,21.2c-3.4,39.3-35.8,69.4-43.1,75.6&#10;&#9;&#9;&#9;C1131,407.3,1114.7,389,1104.9,369.4z M1027.5,377.7c-14.7,0-26.6-2.3-31-3.3c-0.1-38.8,9.3-69.8,27.9-92.3&#10;&#9;&#9;&#9;c8.6,4.7,18.6,7.8,29.9,7.8c0,0,0,0,0,0c1.7,0,3.3-0.1,5-0.2c-0.8,4.2-1.3,8.6-1.6,13.5c-0.1,1.1,0.6,2.1,1.7,2.5&#10;&#9;&#9;&#9;c0.3,0.1,5.3,1.7,12.6,2.6c-1.5,17.1,2.4,35.4,11.6,54.7C1065.3,374.8,1043.9,377.7,1027.5,377.7&#10;&#9;&#9;&#9;C1027.5,377.7,1027.5,377.7,1027.5,377.7z M992.2,242.9c19.6-18,39.6-28,59.6-29.7c-7.3,3.3-14.6,8.1-21.8,14.3&#10;&#9;&#9;&#9;c-0.8,0.7-1.1,1.9-0.6,2.9c0.6,1.3,14,29,40,33.1c-3.8,5.7-6.9,12.7-9,21.1c-2,0.2-4.1,0.3-6.1,0.3c0,0,0,0,0,0&#10;&#9;&#9;&#9;C1019.3,285,997,250.9,992.2,242.9z M1073.1,207.5c-9.3-17.8-1-39.2,1.7-45.4c20.2,4.8,34.4,14.1,42.3,27.7c1.1,2,2.1,4,2.9,5.9&#10;&#9;&#9;&#9;c-3,10.3-3.7,22.8-2,37.5C1095.1,229.4,1080,220.7,1073.1,207.5z M1133.7,180.5c9.8-11.1,24.2-13.4,34.6-13.4&#10;&#9;&#9;&#9;c5.7,0,10.5,0.7,13,1.2c0.1,19.8-5,35.3-15.2,46.1c-11.1,1.5-23,7.2-35.4,16.9c-3.2,0.4-5.9,0.5-7.7,0.5&#10;&#9;&#9;&#9;C1120.4,208.6,1124,191.3,1133.7,180.5z M1174.1,265.6c-25.4,0-41.7-19.9-46-25.9c15.9-13.8,30.6-20.8,43.9-20.8&#10;&#9;&#9;&#9;c25.1,0,38.4,25.3,41.5,32.2C1200,260.7,1186.8,265.6,1174.1,265.6z M1168.5,315.7c-19.8-6.4-33.2-16.7-40.1-30.9&#10;&#9;&#9;&#9;c-7.5-15.5-5.2-32-3.1-40.5c6.1,8,22.6,26,48.3,26.2c0,0,0,0.1,0.1,0.1C1181.6,289.1,1171.7,309.8,1168.5,315.7z M1120.6,242.5&#10;&#9;&#9;&#9;c-2,7.5-4.2,21.5,0.1,36.1c-2.2,5.3-5,9.8-8.5,13.4c-7.6,7.9-18.1,11.9-31.4,11.9h0c-8,0-14.8-1.5-17.9-2.4&#10;&#9;&#9;&#9;C1066.5,249.5,1103.4,242.8,1120.6,242.5z M1115.3,237.8c-11.4,1-29.6,5.3-42.5,21.1c-21.5-1.8-34.6-22.8-38-28.9&#10;&#9;&#9;&#9;c11.9-9.9,23.9-15.6,35.6-17.1C1078.5,225.4,1093.5,233.8,1115.3,237.8z M1077,308.7c1.2,0.1,2.5,0.1,3.8,0.1h0&#10;&#9;&#9;&#9;c14.4,0,26.5-4.6,34.9-13.4c2.8-3,5.3-6.4,7.3-10.3c0.3,0.6,0.5,1.2,0.8,1.8c0.4,0.8,0.8,1.7,1.3,2.5c2.4,7.5,6,15.3,11.2,22.6&#10;&#9;&#9;&#9;c2.9,4.2,6.3,8,10,11.6c-0.1,0.3-0.2,0.6-0.3,0.9c-11.1,29.6-45.5,41.7-53.8,44.2C1080.5,347.3,1075.4,327.2,1077,308.7z&#10;&#9;&#9;&#9; M1140.5,309.2c-1.1-1.6-2.1-3.1-3.1-4.7c8.1,7.1,18.6,12.6,31.5,16.6c0.2,0.1,0.5,0.1,0.7,0.1c0.8,0,1.6-0.4,2.1-1.2&#10;&#9;&#9;&#9;c0.7-1.1,16.1-26,7.2-49.7c6-0.5,12.2-2,18.3-4.5c3.2,3.1,6,6.5,8.4,10.1c17.1,26.6,6.1,61.4,3.1,69.6&#10;&#9;&#9;&#9;C1177.3,341,1154.3,328.8,1140.5,309.2z M1170.4,162.1c-0.7,0-1.4,0-2.2,0c-11.4,0-27.2,2.6-38.3,15.1c-3.1,3.4-5.5,7.5-7.5,12&#10;&#9;&#9;&#9;c-0.3-0.6-0.6-1.2-1-1.8c-5.3-9-13-16.3-23.2-21.8c0.2-4.6,0.9-9.1,2.1-13.5c8.8-30.4,42.2-45,50.3-48.2&#10;&#9;&#9;&#9;C1163.9,124.2,1170.5,143.7,1170.4,162.1z M1094.6,155c-0.6,2.7-1,5.4-1.1,8.2c-5.8-2.6-12.3-4.8-19.5-6.3&#10;&#9;&#9;&#9;c-1.1-0.3-2.2,0.3-2.7,1.3c-0.6,1.1-14.1,27.2-3.3,50.1c-0.4,0.1-0.8,0.1-1.1,0.2c-2.7-0.3-5.6-0.5-8.4-0.5&#10;&#9;&#9;&#9;c-3.5,0-7.1,0.2-10.6,0.7c-1.3-1.4-2.5-3-3.7-4.5c-18.2-25.2-10-59.9-7.7-68.2C1060.4,137.5,1079.9,143.9,1094.6,155z" style="fill: rgb(53, 78, 30);" transform="matrix(1, 0, 0, 1, -952.0823364257812, -46.92494010925293)"/><path class="st4" d="M1072.1,308.3c-7.3-0.9-12.3-2.5-12.6-2.6c-1.1-0.4-1.8-1.4-1.7-2.5c0.3-4.8,0.8-9.3,1.6-13.5&#10;&#9;&#9;&#9;c-1.7,0.1-3.3,0.2-5,0.2c0,0,0,0,0,0c-11.3,0-21.3-3.1-29.9-7.8c-18.6,22.5-28,53.5-27.9,92.3c4.4,1,16.3,3.3,31,3.3c0,0,0,0,0,0&#10;&#9;&#9;&#9;c16.4,0,37.8-2.9,56.2-14.7C1074.5,343.7,1070.6,325.4,1072.1,308.3z" style="fill: rgb(88, 170, 51);" transform="matrix(1, 0, 0, 1, -952.0823364257812, -46.92494010925293)"/><path class="st4" d="M1196.6,348.4c-18.8-4.1-34.2-11.2-46.3-21.2c-9.2,23.4-31.1,36.2-45.4,42.3c9.9,19.6,26.1,37.9,48.6,54.6&#10;&#9;&#9;&#9;C1160.8,417.7,1193.2,387.6,1196.6,348.4z" style="fill: rgb(88, 170, 51);" transform="matrix(1, 0, 0, 1, -952.0823364257812, -46.92494010925293)"/><path class="st3" d="M1044,204.2c1.1,1.6,2.4,3.1,3.7,4.5c3.5-0.5,7.1-0.7,10.6-0.7c2.9,0,5.7,0.2,8.4,0.5&#10;&#9;&#9;&#9;c0.4-0.1,0.8-0.2,1.1-0.2c-10.8-22.9,2.7-49,3.3-50.1c0.5-1,1.6-1.5,2.7-1.3c7.2,1.6,13.7,3.7,19.5,6.3c0.2-2.8,0.6-5.5,1.1-8.2&#10;&#9;&#9;&#9;c-14.7-11.1-34.2-17.5-58.3-19C1034,144.2,1025.9,179,1044,204.2z" style="fill: rgb(111, 212, 64);" transform="matrix(1, 0, 0, 1, -952.0823364257812, -46.92494010925293)"/><path class="st3" d="M1150.7,103.9c-8.1,3.1-41.5,17.8-50.3,48.2c-1.3,4.4-2,8.9-2.1,13.5c10.1,5.5,17.9,12.8,23.2,21.8&#10;&#9;&#9;&#9;c0.3,0.6,0.7,1.2,1,1.8c2-4.5,4.5-8.6,7.5-12c11-12.5,26.9-15.1,38.3-15.1c0.8,0,1.5,0,2.2,0&#10;&#9;&#9;&#9;C1170.5,143.7,1163.9,124.2,1150.7,103.9z" style="fill: rgb(111, 212, 64);" transform="matrix(1, 0, 0, 1, -952.0823364257812, -46.92494010925293)"/><path class="st3" d="M1199,184.4c-4.8,0-9.6,0.6-14.3,1.9c-2,10.9-5.9,20.1-11.8,27.7c31.8,0.6,45.5,35.6,46.1,37.1&#10;&#9;&#9;&#9;c0,0.1,0,0.2,0.1,0.2c14.1-5.6,27.8-15.5,41-29.7C1254.9,214.4,1231.8,184.4,1199,184.4z" style="fill: rgb(111, 212, 64);" transform="matrix(1, 0, 0, 1, -952.0823364257812, -46.92494010925293)"/><path class="st3" d="M1054.3,285C1054.3,285,1054.4,285,1054.3,285c2,0,4.1-0.1,6.1-0.3c2.1-8.5,5.2-15.4,9-21.1&#10;&#9;&#9;&#9;c-26-4.1-39.4-31.8-40-33.1c-0.5-1-0.2-2.2,0.6-2.9c7.2-6.2,14.5-11,21.8-14.3c-20.1,1.8-40.1,11.7-59.6,29.7&#10;&#9;&#9;&#9;C997,250.9,1019.3,285,1054.3,285z" style="fill: rgb(111, 212, 64);" transform="matrix(1, 0, 0, 1, -952.0823364257812, -46.92494010925293)"/><path class="st3" d="M1092.2,368.7c8.3-2.5,42.7-14.6,53.8-44.2c0.1-0.3,0.2-0.6,0.3-0.9c-3.7-3.5-7-7.4-10-11.6&#10;&#9;&#9;&#9;c-5.2-7.4-8.8-15.1-11.2-22.6c-0.4-0.8-0.9-1.6-1.3-2.5c-0.3-0.6-0.6-1.2-0.8-1.8c-2,3.9-4.5,7.3-7.3,10.3&#10;&#9;&#9;&#9;c-8.4,8.8-20.5,13.4-34.9,13.4h0c-1.3,0-2.6,0-3.8-0.1C1075.4,327.2,1080.5,347.3,1092.2,368.7z" style="fill: rgb(111, 212, 64);" transform="matrix(1, 0, 0, 1, -952.0823364257812, -46.92494010925293)"/><path class="st3" d="M1208.7,345.5c3-8.2,13.9-42.9-3.1-69.6c-2.4-3.7-5.2-7.1-8.4-10.1c-6.2,2.5-12.3,4-18.3,4.5&#10;&#9;&#9;&#9;c9,23.7-6.5,48.6-7.2,49.7c-0.5,0.7-1.3,1.2-2.1,1.2c-0.2,0-0.5,0-0.7-0.1c-12.9-3.9-23.5-9.5-31.5-16.6c0.9,1.6,2,3.2,3.1,4.7&#10;&#9;&#9;&#9;C1154.3,328.8,1177.3,341,1208.7,345.5z" style="fill: rgb(111, 212, 64);" transform="matrix(1, 0, 0, 1, -952.0823364257812, -46.92494010925293)"/><path class="st6" d="M1034.8,230c3.4,6.1,16.5,27.1,38,28.9c12.9-15.7,31.1-20,42.5-21.1c-21.8-4-36.8-12.4-44.8-25&#10;&#9;&#9;&#9;C1058.7,214.4,1046.7,220.1,1034.8,230z" style="fill: rgb(163, 237, 92);" transform="matrix(1, 0, 0, 1, -952.0823364257812, -46.92494010925293)"/><path class="st6" d="M1118.1,233.3c-1.6-14.7-1-27.2,2-37.5c-0.8-2-1.8-4-2.9-5.9c-7.9-13.6-22.1-22.9-42.3-27.7&#10;&#9;&#9;&#9;c-2.8,6.1-11.1,27.5-1.7,45.4C1080,220.7,1095.1,229.4,1118.1,233.3z" style="fill: rgb(163, 237, 92);" transform="matrix(1, 0, 0, 1, -952.0823364257812, -46.92494010925293)"/><path class="st6" d="M1122.9,231.8c1.8,0,4.4-0.1,7.7-0.5c12.4-9.7,24.3-15.3,35.4-16.9c10.2-10.9,15.4-26.4,15.2-46.1&#10;&#9;&#9;&#9;c-2.5-0.5-7.2-1.2-13-1.2c-10.3,0-24.7,2.3-34.6,13.4C1124,191.3,1120.4,208.6,1122.9,231.8z" style="fill: rgb(163, 237, 92);" transform="matrix(1, 0, 0, 1, -952.0823364257812, -46.92494010925293)"/><path class="st6" d="M1080.8,303.9L1080.8,303.9c13.2,0,23.8-4,31.4-11.9c3.5-3.6,6.3-8.1,8.5-13.4c-4.3-14.6-2-28.5-0.1-36.1&#10;&#9;&#9;&#9;c-17.2,0.3-54.1,7-57.7,59C1066,302.3,1072.8,303.9,1080.8,303.9z" style="fill: rgb(163, 237, 92);" transform="matrix(1, 0, 0, 1, -952.0823364257812, -46.92494010925293)"/><path class="st6" d="M1173.7,270.6c0,0,0-0.1-0.1-0.1c-25.7-0.2-42.2-18.2-48.3-26.2c-2.1,8.5-4.4,25,3.1,40.5&#10;&#9;&#9;&#9;c6.8,14.1,20.3,24.5,40.1,30.9C1171.7,309.8,1181.6,289.1,1173.7,270.6z" style="fill: rgb(163, 237, 92);" transform="matrix(1, 0, 0, 1, -952.0823364257812, -46.92494010925293)"/><path class="st6" d="M1172,218.9c-13.3,0-28.1,7-43.9,20.8c4.3,6,20.6,25.9,46,25.9c12.6,0,25.9-4.9,39.4-14.4&#10;&#9;&#9;&#9;C1210.4,244.2,1197.1,218.9,1172,218.9z" style="fill: rgb(163, 237, 92);" transform="matrix(1, 0, 0, 1, -952.0823364257812, -46.92494010925293)"/>

</svg>