<svg xmlns="http://www.w3.org/2000/svg" viewBox="0 0 512 512">
  <path fill="#86D2F4" d="M69 314.6C69 418 152.7 502 256 502s187-84 187-187.4c0-45-15.7-86-42-118.3L256.7 10l-145 185.3C85.2 227.7 69 269.3 69 314.6z"/>
  <path fill="#59AA33" d="M108.2 282.4c0 .6-23 69.7 37.2 130s130 37.2 130 37.2 23.3-69.7-37-130S108 282.3 108 282.3z"/>
  <path fill="#A3ED5C" d="M273.7 319.5c-60.4 60.4-37.2 130-37.2 130s69.8 23.3 130-37S404 283 404 282.5c0 0-69.8-23.3-130 37z"/>
  <path fill="#1f4460" d="M409 190.3L264.5 3.8c-2-2.6-4.8-4-8-4-3 0-6 1.4-7.8 3.8L103.7 189l-.6.8C75 225 59 269.3 59 314.6 59 423.4 147.4 512 256 512s197-88.6 197-197.4c0-45-15.6-89.2-44-124.3zM256 492c-97.6 0-177-79.6-177-177.4 0-41.2 14.4-81.3 40.5-113l1-1.2 136-174L393 202l.5.6C419 234 433 274 433 314.6c0 97.8-79.4 177.4-177 177.4z"/>
  <path fill="#1f4460" d="M413.5 280c-1-3.4-3.3-6-6.6-7-1-.4-20-6.5-47-4.7-25 1.8-61 10.8-94 44.2-25 24.7-36 51-41 73L175 335c-4-4-10.4-4-14.3 0-4 3.8-4 10 0 14l59.3 59.2c.7.7 1.5 1.3 2.3 1.8-1 24.8 4.5 42 4.7 42.8 1 3 3.4 5.3 6.4 6.3.6 1 15 5 36 5h10.2c24.5-1 60.7-10 94-44 59-59 43.6-126 40-139zm-54 125.4c-23 23-50 36-80.4 38.2-8 .7-16 .4-22-.3l99-99.3c4-3.8 4-10 0-14s-10-4-14 0l-99 99.2c0-6.2-1-13.7 0-22 2.7-30.5 15-57.6 38-80.6 23-23 50-36 81-38.2 15.5-1.2 28 .7 34.4 2.2 4 18 9.7 69-36 114.8z"/>
  <path fill="#1f4460" d="M190.4 432.4c-13.6-6.4-26.4-15.5-38-27-45.6-45.7-40-96.7-36-115 15.3-3.2 62.2-9.3 106 28 4.2 3.6 10.5 3 14-1 3.7-4.3 3.2-10.6-1-14.2C174 251 108 272 105 273c-3.2 1-5.6 3.6-6.5 7-3.7 13-19.2 80.5 39.8 139.5 13.2 13.2 28 23.6 43.6 31 1 .7 2 1 4 1 4 0 7-2 9-5.8 2-5 0-11-5-13.3z"/>
  <path fill="#fff" d="M319.4 182c2 2.6 5 4 8 4 2 0 4.3-.7 6-2 4.5-3.5 5.3-9.8 2-14.2l-57.5-74c-4-4.5-10-5.3-15-2-4.6 3.5-5 9.8-2 14l58 74.2zm19.6 25.3l.3.3c2 2.6 5 4 8 4 2 0 4.2-.8 6-2.2 4.4-3.4 5.2-9.7 1.8-14v-.4c-3-4.3-9-5-14-1.8-4 3.4-5 9.7-2 14z"/>
</svg>
